<svg class="icon-arrow-nv" width="36" height="36" viewBox="0 0 36 36" fill="none" xmlns="http://www.w3.org/2000/svg">
<circle cx="17.8125" cy="17.8125" r="17.8125" transform="rotate(-180 17.8125 17.8125)" fill="white"/>
<path d="M14.3095 18.5151L19.9105 24.1063C20.0025 24.199 20.112 24.2726 20.2326 24.3229C20.3532 24.3731 20.4825 24.399 20.6131 24.399C20.7438 24.399 20.8731 24.3731 20.9937 24.3229C21.1143 24.2726 21.2238 24.199 21.3158 24.1063C21.5001 23.9209 21.6035 23.6701 21.6035 23.4086C21.6035 23.1472 21.5001 22.8964 21.3158 22.711L16.4173 17.763L21.3158 12.8646C21.5001 12.6792 21.6035 12.4284 21.6035 12.1669C21.6035 11.9055 21.5001 11.6547 21.3158 11.4693C21.2241 11.3758 21.1148 11.3014 20.9942 11.2504C20.8736 11.1995 20.7441 11.173 20.6131 11.1724C20.4822 11.173 20.3527 11.1995 20.2321 11.2504C20.1115 11.3014 20.0022 11.3758 19.9105 11.4693L14.3095 17.0604C14.2091 17.1531 14.1289 17.2656 14.0741 17.3908C14.0192 17.5159 13.9909 17.6511 13.9909 17.7878C13.9909 17.9244 14.0192 18.0596 14.0741 18.1848C14.1289 18.31 14.2091 18.4225 14.3095 18.5151Z" fill="#575759"/>
</svg>