<svg class="icon-arrow-nv" width="36" height="36" viewBox="0 0 36 36" fill="none" xmlns="http://www.w3.org/2000/svg">
<circle cx="17.8125" cy="17.8125" r="17.8125" fill="white"/>
<path d="M21.3155 17.1099L15.7145 11.5187C15.6225 11.426 15.513 11.3524 15.3924 11.3021C15.2718 11.2519 15.1425 11.226 15.0119 11.226C14.8812 11.226 14.7519 11.2519 14.6313 11.3021C14.5107 11.3524 14.4012 11.426 14.3092 11.5187C14.1249 11.7041 14.0215 11.955 14.0215 12.2164C14.0215 12.4778 14.1249 12.7286 14.3092 12.914L19.2077 17.862L14.3092 22.7604C14.1249 22.9458 14.0215 23.1966 14.0215 23.4581C14.0215 23.7195 14.1249 23.9703 14.3092 24.1557C14.4009 24.2492 14.5102 24.3236 14.6308 24.3746C14.7514 24.4255 14.8809 24.452 15.0119 24.4526C15.1428 24.452 15.2723 24.4255 15.3929 24.3746C15.5135 24.3236 15.6228 24.2492 15.7145 24.1557L21.3155 18.5646C21.4159 18.4719 21.4961 18.3594 21.5509 18.2342C21.6058 18.1091 21.6341 17.9739 21.6341 17.8372C21.6341 17.7006 21.6058 17.5654 21.5509 17.4402C21.4961 17.315 21.4159 17.2025 21.3155 17.1099Z" fill="#575759"/>
</svg>